<?xml version="1.0" encoding="UTF-8" standalone="no"?>
<!-- Created with Inkscape (http://www.inkscape.org/) -->

<svg
   xmlns:dc="http://purl.org/dc/elements/1.1/"
   xmlns:cc="http://creativecommons.org/ns#"
   xmlns:rdf="http://www.w3.org/1999/02/22-rdf-syntax-ns#"
   xmlns:svg="http://www.w3.org/2000/svg"
   xmlns="http://www.w3.org/2000/svg"
   xmlns:sodipodi="http://sodipodi.sourceforge.net/DTD/sodipodi-0.dtd"
   xmlns:inkscape="http://www.inkscape.org/namespaces/inkscape"
   width="118.92451mm"
   height="138.77396mm"
   viewBox="0 0 118.92451 138.77396"
   version="1.1"
   id="svg8"
   inkscape:version="0.92.4 (5da689c313, 2019-01-14)"
   sodipodi:docname="Churchill College Crest.svg"
   inkscape:export-filename="C:\Users\Grigor\Downloads\crest.png"
   inkscape:export-xdpi="125.92566"
   inkscape:export-ydpi="125.92566">
  <defs
     id="defs2" />
  <sodipodi:namedview
     id="base"
     pagecolor="#ffffff"
     bordercolor="#666666"
     borderopacity="1.0"
     inkscape:pageopacity="0.0"
     inkscape:pageshadow="2"
     inkscape:zoom="1.4"
     inkscape:cx="60.650663"
     inkscape:cy="217.26373"
     inkscape:document-units="mm"
     inkscape:current-layer="g4943"
     showgrid="false"
     inkscape:window-width="2560"
     inkscape:window-height="1377"
     inkscape:window-x="-8"
     inkscape:window-y="-8"
     inkscape:window-maximized="1"
     fit-margin-top="0"
     fit-margin-left="0"
     fit-margin-right="0"
     fit-margin-bottom="0" />
  <metadata
     id="metadata5">
    <rdf:RDF>
      <cc:Work
         rdf:about="">
        <dc:format>image/svg+xml</dc:format>
        <dc:type
           rdf:resource="http://purl.org/dc/dcmitype/StillImage" />
        <dc:title></dc:title>
      </cc:Work>
    </rdf:RDF>
  </metadata>
  <g
     inkscape:label="Layer 1"
     inkscape:groupmode="layer"
     id="layer1"
     transform="translate(-33.814811,-94.646433)">
    <g
       id="g4544"
       transform="matrix(0.03527778,0,0,-0.03527778,24.587288,274.03127)"
       style="fill:#000000;stroke:none">
      <g
         id="g4943"
         transform="matrix(0.74999995,0,0,-0.74999995,253.90601,5088.6742)">
        <g
           id="layer101"
           style="fill:#0c0c0c;fill-opacity:1;stroke:none">
          <path
             id="path4582"
             d="m 2025,5155 c -105,-52 -217,-109 -250,-128 -88,-49 -284,-179 -353,-234 -33,-27 -95,-75 -137,-108 -42,-33 -163,-148 -268,-255 C 791,4198 709,4100 586,3910 560,3869 530,3824 521,3810 488,3762 390,3581 351,3499 158,3080 59,2700 15,2200 11,2159 9,1979 11,1800 15,1429 15,1450 12,636 10,210 13,23 20,16 28,8 680,5 2268,5 h 2237 l -3,785 c -4,1238 -7,1311 -56,1671 -45,325 -179,746 -337,1061 -157,313 -357,599 -587,841 -70,72 -140,143 -157,156 -16,14 -57,50 -90,82 -156,150 -467,365 -712,491 -127,66 -326,158 -341,158 -4,0 -93,-43 -197,-95 z"
             inkscape:connector-curvature="0"
             style="fill:#0c0c0c;fill-opacity:1" />
        </g>
        <g
           id="layer102"
           style="fill:#f82c21;stroke:none">
          <path
             id="path4585"
             d="m 1230,4585 c -23,-19 -75,-69 -116,-111 l -74,-77 27,-36 c 50,-67 116,-146 123,-149 3,-1 27,24 53,57 l 46,60 1,98 c 2,160 0,193 -9,193 -5,0 -28,-16 -51,-35 z"
             inkscape:connector-curvature="0" />
          <path
             id="path4587"
             d="m 940,4175 c -35,-44 -49,-69 -43,-78 15,-26 98,-126 105,-127 10,0 108,126 108,140 0,11 -51,81 -87,118 -20,20 -29,14 -83,-53 z"
             inkscape:connector-curvature="0" />
          <path
             id="path4589"
             d="m 1147,3939 c -27,-34 -51,-67 -53,-74 -3,-7 20,-47 52,-89 63,-85 63,-85 115,-10 44,64 41,115 -12,179 -23,28 -44,51 -47,52 -4,2 -29,-25 -55,-58 z"
             inkscape:connector-curvature="0" />
          <path
             id="path4591"
             d="m 753,3936 c -23,-29 -43,-58 -45,-63 -5,-15 92,-143 108,-143 8,0 14,4 14,9 0,4 18,31 40,59 22,27 40,55 40,60 0,11 -95,125 -108,130 -4,1 -26,-22 -49,-52 z"
             inkscape:connector-curvature="0" />
          <path
             id="path4593"
             d="m 554,3783 c -11,-21 -39,-73 -63,-115 -23,-43 -49,-92 -59,-110 -9,-18 -19,-35 -22,-38 -12,-11 -29,-60 -22,-63 4,-3 54,-4 112,-3 l 105,1 62,83 62,83 -37,52 c -91,127 -106,147 -112,147 -3,0 -15,-17 -26,-37 z"
             inkscape:connector-curvature="0" />
          <path
             id="path4595"
             d="m 946,3681 c -25,-33 -46,-65 -46,-71 0,-7 10,-25 23,-40 12,-16 35,-47 51,-69 17,-23 33,-41 36,-41 13,0 110,109 110,124 0,16 -108,156 -121,156 -4,0 -28,-27 -53,-59 z"
             inkscape:connector-curvature="0" />
          <path
             id="path4597"
             d="m 790,3481 c -15,-28 -13,-31 18,-31 37,0 44,8 29,31 -15,24 -34,24 -47,0 z"
             inkscape:connector-curvature="0" />
          <path
             id="path4599"
             d="m 1780,3432 c -15,-2 -66,-42 -125,-97 l -100,-94 25,-26 c 24,-25 25,-25 40,-7 14,18 133,171 156,200 8,11 29,-9 100,-97 49,-60 94,-110 99,-110 6,-1 21,14 35,31 14,18 53,67 88,111 35,43 62,80 60,82 -5,4 -351,11 -378,7 z"
             inkscape:connector-curvature="0" />
          <path
             id="path4601"
             d="m 2208,3263 c -20,-27 -56,-72 -80,-102 -24,-29 -49,-61 -56,-71 -11,-15 -4,-28 50,-96 35,-44 76,-96 91,-116 15,-21 32,-38 38,-38 5,0 9,93 9,235 0,129 -3,235 -8,235 -4,0 -24,-21 -44,-47 z"
             inkscape:connector-curvature="0" />
          <path
             id="path4603"
             d="m 1740,3153 c -23,-31 -44,-62 -47,-69 -3,-7 17,-41 43,-74 53,-68 42,-70 117,23 22,26 37,53 34,60 -8,19 -88,117 -96,117 -5,0 -27,-26 -51,-57 z"
             inkscape:connector-curvature="0" />
          <path
             id="path4605"
             d="m 1382,3067 -72,-73 2,-319 3,-320 92,115 92,115 -17,27 c -9,14 -50,67 -90,118 l -72,91 71,97 c 40,53 83,109 97,124 l 25,27 -27,36 c -15,19 -28,35 -29,35 -1,0 -35,-33 -75,-73 z"
             inkscape:connector-curvature="0" />
          <path
             id="path4607"
             d="m 1923,2904 -52,-66 61,-74 c 33,-41 62,-73 63,-72 2,2 25,34 53,72 l 51,68 -56,69 c -31,38 -59,69 -63,69 -3,0 -29,-30 -57,-66 z"
             inkscape:connector-curvature="0" />
          <path
             id="path4609"
             d="m 1544,2903 c -25,-32 -49,-63 -51,-70 -5,-13 77,-133 89,-130 16,5 107,131 101,141 -12,20 -85,116 -89,116 -1,0 -24,-26 -50,-57 z"
             inkscape:connector-curvature="0" />
          <path
             id="path4611"
             d="m 2525,2884 c -14,-15 -16,-28 -11,-77 3,-33 6,-77 6,-98 v -39 h 60 c 55,0 60,2 60,23 0,12 3,61 7,110 l 6,87 h -25 c -14,0 -39,3 -55,6 -21,4 -35,1 -48,-12 z"
             inkscape:connector-curvature="0" />
          <path
             id="path4613"
             d="m 2202,2763 c -54,-81 -59,-91 -41,-77 8,6 31,14 52,18 20,4 37,10 38,14 8,53 7,102 -1,102 -5,0 -27,-26 -48,-57 z"
             inkscape:connector-curvature="0" />
          <path
             id="path4615"
             d="m 1760,2700 c -10,-18 -8,-20 21,-20 31,0 32,0 14,20 -10,11 -19,20 -21,20 -2,0 -8,-9 -14,-20 z"
             inkscape:connector-curvature="0" />
          <path
             id="path4617"
             d="m 2829,2613 c -1,-5 -3,-34 -4,-65 -1,-57 -1,-58 26,-58 25,0 27,4 30,43 6,69 1,87 -27,87 -13,0 -25,-3 -25,-7 z"
             inkscape:connector-curvature="0" />
          <path
             id="path4619"
             d="m 1525,2399 c -33,-41 -79,-99 -103,-129 l -44,-55 143,-3 c 79,-1 149,0 156,2 9,4 12,24 8,71 -4,68 -6,72 -78,159 l -24,29 z"
             inkscape:connector-curvature="0" />
          <path
             id="path4621"
             d="m 2843,2223 c -22,-8 -15,-20 39,-70 28,-26 75,-72 104,-102 l 52,-55 116,109 c 64,59 116,112 116,117 0,8 -406,10 -427,1 z"
             inkscape:connector-curvature="0" />
          <path
             id="path4623"
             d="m 3243,2007 c -51,-50 -96,-96 -100,-100 -7,-8 185,-207 199,-207 5,0 8,90 8,200 0,110 -3,200 -7,200 -5,0 -50,-42 -100,-93 z"
             inkscape:connector-curvature="0" />
          <path
             id="path4625"
             d="m 2834,1923 c 1,-84 -1,-97 -16,-101 -22,-5 -23,-18 -4,-25 15,-6 139,99 134,113 -5,14 -99,110 -107,110 -4,0 -7,-43 -7,-97 z"
             inkscape:connector-curvature="0" />
          <path
             id="path4627"
             d="m 2980,1755 -63,-64 59,-60 c 32,-34 66,-61 74,-61 9,0 42,26 73,58 l 58,58 -33,35 c -18,19 -49,49 -68,66 l -36,33 z"
             inkscape:connector-curvature="0" />
          <path
             id="path4629"
             d="m 2263,1746 c -10,-33 -12,-491 -2,-500 3,-3 57,44 119,104 l 113,110 -101,104 c -56,57 -102,108 -102,114 0,6 12,22 27,36 30,28 30,27 -13,48 -31,15 -32,15 -41,-16 z"
             inkscape:connector-curvature="0" />
          <path
             id="path4631"
             d="m 2573,1767 c -39,-11 -103,-57 -103,-75 0,-4 28,-36 63,-70 l 63,-62 64,65 63,64 -44,46 c -48,49 -46,49 -106,32 z"
             inkscape:connector-curvature="0" />
          <path
             id="path4633"
             d="m 3242,1567 c -50,-51 -92,-97 -92,-103 0,-12 62,-74 75,-74 5,0 35,26 67,57 l 58,57 v 78 c 0,43 -3,78 -8,78 -4,0 -49,-42 -100,-93 z"
             inkscape:connector-curvature="0" />
          <path
             id="path4635"
             d="m 2751,1529 -64,-60 64,-65 63,-64 26,22 c 65,57 100,93 100,103 0,9 -34,44 -100,102 l -25,22 z"
             inkscape:connector-curvature="0" />
          <path
             id="path4637"
             d="m 2477,1262 c -59,-59 -107,-110 -107,-114 0,-4 96,-6 213,-4 178,2 212,5 209,17 -2,11 -195,209 -204,209 -2,0 -52,-48 -111,-108 z"
             inkscape:connector-curvature="0" />
          <path
             id="path4639"
             d="m 2928,1265 c -60,-58 -108,-110 -108,-115 0,-6 33,-10 79,-10 h 79 l 71,70 c 39,39 71,74 71,78 0,9 -73,82 -80,82 -3,-1 -53,-48 -112,-105 z"
             inkscape:connector-curvature="0" />
          <path
             id="path4641"
             d="m 4128,1132 c -109,-1 -198,-6 -198,-10 0,-4 45,-52 100,-107 l 100,-99 98,94 c 99,95 117,117 104,122 -4,2 -96,2 -204,0 z"
             inkscape:connector-curvature="0" />
          <path
             id="path4643"
             d="m 2497,1122 -239,-2 6,-238 c 3,-130 6,-364 7,-519 1,-154 5,-287 10,-295 10,-15 10,-2 9,243 l -1,165 108,105 c 59,57 206,202 327,321 l 221,217 -105,3 c -58,2 -212,2 -343,0 z"
             inkscape:connector-curvature="0" />
          <path
             id="path4645"
             d="m 3660,1075 -55,-55 47,-46 46,-46 101,101 101,101 h -93 -93 z"
             inkscape:connector-curvature="0" />
          <path
             id="path4647"
             d="m 4339,929 -107,-114 99,-106 c 55,-58 99,-112 99,-120 0,-8 -40,-55 -90,-104 -49,-49 -90,-93 -90,-96 0,-11 191,-209 201,-209 10,0 9,710 -1,809 l -5,54 z"
             inkscape:connector-curvature="0" />
          <path
             id="path4649"
             d="m 3850,895 -54,-55 64,-65 64,-65 53,52 c 29,29 53,57 53,63 0,10 -94,106 -116,118 -6,3 -35,-18 -64,-48 z"
             inkscape:connector-curvature="0" />
          <path
             id="path4651"
             d="m 3436,851 -67,-68 -2,-82 c -1,-46 2,-85 7,-88 4,-3 57,43 116,102 121,121 120,119 47,177 l -34,26 z"
             inkscape:connector-curvature="0" />
          <path
             id="path4653"
             d="m 326,722 c -3,-6 -5,-59 -5,-118 0,-60 0,-121 0,-136 l -1,-28 H 190 60 V 385 330 H 190 320 V 190 50 h 65 65 v 141 141 l 116,-3 c 131,-4 138,0 132,69 l -3,37 -110,-3 c -92,-3 -113,-1 -124,12 -10,12 -12,49 -10,148 l 4,133 -62,3 c -34,2 -64,-1 -67,-6 z"
             inkscape:connector-curvature="0" />
          <path
             id="path4655"
             d="m 3627,672 c -31,-32 -57,-64 -57,-73 0,-16 100,-119 116,-119 13,0 124,112 124,126 0,10 -111,124 -121,124 -2,0 -30,-26 -62,-58 z"
             inkscape:connector-curvature="0" />
          <path
             id="path4657"
             d="m 4080,669 c -25,-27 -47,-54 -49,-60 -3,-9 106,-118 119,-119 3,0 29,23 59,51 l 54,50 -64,65 c -35,35 -66,64 -69,63 -3,-1 -25,-23 -50,-50 z"
             inkscape:connector-curvature="0" />
          <path
             id="path4659"
             d="m 3370,374 c 0,-240 -15,-229 128,-90 l 92,91 -102,102 c -57,57 -106,103 -110,103 -5,0 -8,-93 -8,-206 z"
             inkscape:connector-curvature="0" />
          <path
             id="path4661"
             d="m 3845,440 -59,-60 64,-65 64,-65 63,62 c 35,34 63,67 63,72 0,12 -112,115 -125,116 -6,0 -37,-27 -70,-60 z"
             inkscape:connector-curvature="0" />
          <path
             id="path4663"
             d="M 4026,171 C 3967,111 3922,60 3926,58 c 5,-3 105,-6 222,-7 151,-1 212,1 212,9 0,10 -202,211 -219,218 -3,1 -55,-47 -115,-107 z"
             inkscape:connector-curvature="0" />
          <path
             id="path4665"
             d="M 3573,169 C 3516,114 3470,65 3470,61 c 0,-11 417,-13 424,-3 6,10 -196,212 -211,212 -4,0 -54,-46 -110,-101 z"
             inkscape:connector-curvature="0" />
        </g>
        <g
           id="layer103"
           style="fill:#faef01;stroke:none">
          <path
             id="path4668"
             d="M 954,4312 C 810,4154 600,3872 600,3838 c 0,-14 67,-113 113,-168 l 28,-33 26,25 c 34,34 27,57 -36,133 -28,33 -51,65 -51,70 0,6 31,46 68,90 60,71 113,138 176,224 11,14 33,41 50,58 l 30,33 24,-23 c 13,-12 40,-43 59,-69 19,-27 39,-48 43,-48 5,0 18,13 29,29 l 20,28 -72,93 c -39,52 -76,95 -82,96 -5,2 -37,-27 -71,-64 z"
             inkscape:connector-curvature="0" />
          <path
             id="path4670"
             d="m 1225,4219 c -33,-41 -72,-90 -85,-109 -14,-19 -46,-62 -72,-94 -27,-33 -48,-65 -48,-70 0,-20 46,-69 58,-62 7,4 57,65 112,137 l 101,129 -3,71 -3,72 z"
             inkscape:connector-curvature="0" />
          <path
             id="path4672"
             d="m 846,4057 c -15,-19 -26,-37 -26,-41 0,-9 120,-168 215,-286 33,-41 68,-86 78,-100 l 18,-25 29,33 c 17,18 30,36 30,41 0,15 -304,411 -316,411 -1,0 -14,-15 -28,-33 z"
             inkscape:connector-curvature="0" />
          <path
             id="path4674"
             d="m 1232,4050 -23,-30 33,-40 c 18,-22 36,-40 41,-40 12,0 8,115 -5,128 -16,16 -20,15 -46,-18 z"
             inkscape:connector-curvature="0" />
          <path
             id="path4676"
             d="M 886,3788 C 782,3661 640,3473 640,3463 c 0,-9 17,-13 53,-12 h 52 l 110,140 c 61,77 114,148 119,159 6,13 2,27 -13,49 -13,17 -26,31 -31,31 -5,0 -25,-19 -44,-42 z"
             inkscape:connector-curvature="0" />
          <path
             id="path4678"
             d="m 1233,3708 c -56,-75 -60,-82 -36,-70 29,16 93,90 93,107 0,27 -17,16 -57,-37 z"
             inkscape:connector-curvature="0" />
          <path
             id="path4680"
             d="m 851,3564 c -27,-34 -26,-40 5,-81 22,-29 31,-33 69,-33 24,0 46,3 49,8 5,8 -79,125 -93,130 -5,2 -18,-9 -30,-24 z"
             inkscape:connector-curvature="0" />
          <path
             id="path4682"
             d="m 2129,3358 c -29,-40 -79,-102 -109,-139 -110,-134 -220,-277 -220,-286 0,-5 13,-24 29,-43 19,-23 33,-32 39,-25 16,16 294,365 340,426 34,45 42,64 42,97 0,41 -1,42 -33,42 -29,0 -39,-8 -88,-72 z"
             inkscape:connector-curvature="0" />
          <path
             id="path4684"
             d="m 1733,3328 c -26,-35 -78,-102 -115,-148 -184,-232 -268,-346 -265,-360 5,-20 148,-210 158,-210 11,0 49,55 49,72 0,7 -23,42 -50,77 -28,36 -50,66 -50,68 0,2 34,45 76,96 41,50 108,135 148,187 41,52 82,103 92,112 19,16 21,15 54,-24 19,-23 45,-53 57,-67 l 22,-26 25,30 c 14,17 25,33 26,36 0,8 -160,214 -170,217 -5,2 -30,-25 -57,-60 z"
             inkscape:connector-curvature="0" />
          <path
             id="path4686"
             d="m 1507,3184 -38,-37 23,-26 c 13,-14 24,-28 25,-30 4,-6 52,54 59,73 4,11 -1,25 -13,37 -18,19 -19,18 -56,-17 z"
             inkscape:connector-curvature="0" />
          <path
             id="path4688"
             d="m 1638,3023 c -16,-20 -28,-41 -28,-47 0,-6 26,-43 58,-82 31,-39 83,-105 115,-146 l 59,-76 61,-5 c 34,-2 65,-2 69,2 7,6 -291,389 -302,390 -3,0 -17,-16 -32,-36 z"
             inkscape:connector-curvature="0" />
          <path
             id="path4690"
             d="m 2017,3026 -26,-33 65,-82 64,-82 -28,-37 c -47,-61 -92,-125 -89,-128 1,-2 25,-4 51,-5 42,-3 51,0 65,21 9,13 36,50 59,82 24,32 42,64 39,71 -7,17 -154,214 -165,221 -5,3 -21,-9 -35,-28 z"
             inkscape:connector-curvature="0" />
          <path
             id="path4692"
             d="m 1652,2757 c -23,-28 -75,-94 -115,-146 -40,-51 -107,-139 -150,-194 -76,-98 -78,-102 -75,-151 3,-43 6,-51 24,-54 17,-2 42,24 122,130 56,73 128,167 161,207 33,41 62,88 65,103 4,18 12,28 24,28 21,0 56,55 46,73 -11,18 -47,57 -53,57 -3,0 -25,-24 -49,-53 z"
             inkscape:connector-curvature="0" />
          <path
             id="path4694"
             d="m 1625,2529 c -14,-17 -25,-34 -25,-38 0,-9 69,-101 75,-101 3,0 5,36 5,79 0,93 -14,108 -55,60 z"
             inkscape:connector-curvature="0" />
          <path
             id="path4696"
             d="m 3069,2001 -234,-229 19,-21 c 36,-39 0,-21 -46,24 -26,25 -52,45 -58,45 -6,0 -25,-10 -43,-22 -18,-13 -34,-24 -37,-26 -6,-4 283,-292 292,-292 13,0 68,52 68,64 0,7 -30,41 -66,76 -70,70 -96,104 -69,94 10,-4 56,34 137,113 68,65 163,157 211,203 49,47 93,93 99,103 15,29 0,97 -22,97 -10,0 -122,-103 -251,-229 z"
             inkscape:connector-curvature="0" />
          <path
             id="path4698"
             d="m 2837,2164 c -4,-4 -7,-28 -7,-53 0,-44 3,-50 70,-116 l 70,-70 30,30 30,30 -93,93 c -51,51 -96,89 -100,86 z"
             inkscape:connector-curvature="0" />
          <path
             id="path4700"
             d="m 3086,1862 -27,-29 73,-72 73,-71 -194,-188 -195,-188 -64,68 c -36,37 -70,68 -76,68 -14,0 -66,-52 -66,-66 0,-5 45,-54 100,-109 l 99,-99 28,24 c 77,69 483,475 483,484 0,10 -190,206 -201,206 -3,0 -18,-13 -33,-28 z"
             inkscape:connector-curvature="0" />
          <path
             id="path4702"
             d="m 2334,1710 -30,-31 103,-102 103,-101 36,35 36,36 -62,59 c -34,32 -69,63 -77,68 -12,7 -10,13 13,37 l 28,29 h -60 c -53,0 -63,-3 -90,-30 z"
             inkscape:connector-curvature="0" />
          <path
             id="path4704"
             d="m 2714,1657 c -7,-7 -111,-111 -233,-232 -201,-199 -222,-223 -219,-250 3,-27 7,-30 38,-31 33,0 51,15 268,231 l 234,232 -27,31 c -29,34 -43,39 -61,19 z"
             inkscape:connector-curvature="0" />
          <path
             id="path4706"
             d="m 3085,1420 -29,-30 42,-42 42,-42 35,34 35,34 -37,38 c -20,21 -42,38 -48,38 -6,0 -24,-14 -40,-30 z"
             inkscape:connector-curvature="0" />
          <path
             id="path4708"
             d="M 4175,937 C 4070,831 3973,733 3960,717 l -24,-27 29,-30 c 16,-17 33,-30 38,-30 14,0 76,59 275,262 148,152 172,180 172,207 0,30 -1,31 -42,30 -42,0 -47,-4 -233,-192 z"
             inkscape:connector-curvature="0" />
          <path
             id="path4710"
             d="m 2264,883 c 3,-131 6,-365 7,-520 1,-154 5,-287 10,-295 10,-15 10,-2 9,243 l -1,165 108,105 c 59,57 207,202 328,321 l 220,218 h -343 -344 z"
             inkscape:connector-curvature="0" />
          <path
             id="path4712"
             d="M 3650,858 C 3515,720 3404,603 3402,596 c -1,-6 42,-56 97,-110 l 99,-99 30,24 c 17,13 33,30 37,38 3,9 -20,39 -63,80 l -69,67 183,187 c 100,103 186,187 191,187 5,0 38,-29 73,-65 35,-36 69,-65 75,-65 5,0 22,15 37,33 l 26,34 -101,101 c -56,56 -107,102 -112,101 -6,0 -120,-113 -255,-251 z"
             inkscape:connector-curvature="0" />
          <path
             id="path4714"
             d="m 3560,965 -34,-35 44,-45 44,-45 33,32 c 18,18 33,37 33,43 0,11 -71,85 -81,85 -3,0 -20,-16 -39,-35 z"
             inkscape:connector-curvature="0" />
          <path
             id="path4716"
             d="m 3737,792 c -15,-15 -27,-32 -27,-38 0,-9 236,-253 312,-323 l 36,-33 36,27 c 20,15 36,33 36,39 0,14 -341,356 -356,356 -6,0 -22,-13 -37,-28 z"
             inkscape:connector-curvature="0" />
          <path
             id="path4718"
             d="m 4177,772 c -15,-15 -27,-32 -27,-37 0,-5 30,-40 67,-77 l 67,-68 -183,-178 c -101,-97 -187,-178 -191,-180 -4,-2 -38,28 -74,65 l -66,68 -37,-38 -38,-38 103,-100 c 57,-54 108,-99 113,-99 12,0 461,442 489,480 l 18,26 -99,102 c -55,56 -103,102 -107,102 -5,0 -20,-13 -35,-28 z"
             inkscape:connector-curvature="0" />
          <path
             id="path4720"
             d="m 3601,363 -232,-227 3,-40 c 3,-36 6,-41 30,-44 24,-3 58,28 263,231 156,155 234,238 230,248 -4,8 -19,24 -34,36 l -28,22 z"
             inkscape:connector-curvature="0" />
          <path
             id="path4722"
             d="m 4186,331 -37,-38 122,-117 c 97,-91 129,-116 151,-116 25,0 28,4 29,33 1,17 1,39 -1,47 -1,14 -208,230 -220,230 -3,0 -23,-17 -44,-39 z"
             inkscape:connector-curvature="0" />
        </g>
        <g
           id="layer104"
           style="fill:#fbfaf5;stroke:none">
          <path
             id="path4725"
             d="m 2095,5137 c -262,-124 -444,-234 -670,-403 l -115,-86 v -439 c 0,-270 4,-439 9,-439 13,0 129,109 466,434 371,359 420,406 428,406 4,0 7,-167 7,-372 v -372 l -50,-46 c -180,-165 -377,-356 -373,-362 2,-5 106,-8 230,-8 h 226 l -6,523 c -4,287 -7,678 -7,870 0,324 -1,347 -17,346 -10,0 -67,-24 -128,-52 z"
             inkscape:connector-curvature="0" />
          <path
             id="path4727"
             d="m 3104,4405 c -6,-15 4,-65 21,-110 6,-16 2,-14 -23,9 -24,22 -37,27 -59,23 -18,-3 -34,0 -45,10 -17,15 -18,14 -18,-4 0,-19 30,-45 83,-72 29,-16 38,-38 10,-26 -22,8 -133,12 -133,5 0,-11 24,-30 39,-30 8,0 23,-8 33,-17 16,-14 26,-15 79,-5 50,9 68,9 96,-3 20,-8 48,-15 63,-15 22,0 34,-10 64,-57 43,-70 45,-101 8,-145 -76,-88 -84,-114 -73,-216 7,-67 1,-97 -13,-73 -8,12 -66,11 -66,0 0,-4 19,-21 43,-37 77,-54 149,-170 131,-212 -4,-10 -12,3 -23,39 -15,51 -19,55 -61,68 -51,15 -116,9 -143,-15 -24,-21 -28,-13 -16,35 9,32 8,47 -5,71 -9,17 -16,45 -16,62 0,32 -15,38 -50,20 -17,-9 -22,-5 -34,25 -17,40 -26,43 -51,15 -23,-26 -33,-25 -37,2 -4,28 -28,36 -28,9 0,-24 -33,-44 -60,-36 -10,3 -22,19 -25,36 -7,32 -45,62 -45,35 0,-8 5,-18 10,-21 6,-3 10,-17 10,-30 0,-38 -47,-48 -99,-22 -35,18 -44,19 -65,8 -18,-10 -28,-10 -46,-1 -34,18 -37,3 -5,-30 23,-24 38,-30 69,-30 38,-1 40,-2 22,-15 -11,-8 -29,-12 -43,-9 -13,4 -30,1 -38,-6 -12,-10 -20,-9 -39,4 -15,10 -27,12 -31,6 -10,-15 3,-29 43,-45 27,-12 43,-13 66,-5 40,14 44,6 10,-24 -22,-20 -36,-24 -57,-20 -24,5 -28,3 -25,-13 3,-15 13,-18 62,-19 57,-2 60,-1 105,44 26,27 65,54 91,63 42,15 48,14 85,-2 22,-10 49,-19 61,-19 32,0 33,-6 14,-68 -17,-55 -17,-59 1,-105 20,-51 15,-76 -20,-105 -14,-11 -12,-12 14,-7 17,4 59,10 95,15 36,4 84,11 108,15 29,5 51,4 67,-5 19,-10 30,-10 54,0 36,14 39,25 11,33 -24,6 -26,29 -5,47 8,7 15,19 15,26 0,8 5,14 10,14 16,0 12,-37 -5,-44 -8,-3 -15,-12 -15,-21 0,-13 4,-14 20,-5 11,6 25,8 30,5 20,-12 9,-34 -36,-73 -26,-24 -47,-52 -50,-68 -7,-37 -10,-41 -41,-49 -29,-7 -63,-32 -63,-47 0,-4 14,-7 31,-6 l 32,3 1,-57 c 2,-32 -1,-58 -5,-58 -8,0 -19,37 -19,68 0,26 -30,30 -54,7 -20,-21 -23,-19 -29,15 -8,35 -20,37 -65,10 -42,-26 -42,-26 -42,10 0,17 -2,30 -4,30 -2,0 -26,-10 -53,-22 -60,-27 -65,-28 -69,-5 -4,28 -12,32 -32,14 -10,-9 -29,-18 -43,-19 -18,-2 -23,1 -21,15 4,22 -20,78 -31,74 -9,-3 -9,-10 0,-45 13,-51 -43,-67 -112,-32 -25,13 -50,18 -67,15 -20,-5 -30,-1 -42,16 -19,28 -29,20 -20,-15 5,-19 16,-28 45,-36 45,-13 53,-32 9,-24 -19,4 -38,1 -55,-10 -16,-10 -34,-14 -50,-10 -32,8 -33,-10 0,-32 25,-16 77,-12 102,8 13,11 33,3 33,-13 0,-5 -11,-14 -24,-21 -16,-6 -26,-21 -28,-37 -2,-22 -8,-26 -30,-24 -34,2 -37,-14 -4,-23 32,-8 87,17 124,57 30,33 35,34 116,38 84,3 86,2 174,-42 49,-25 99,-53 111,-64 16,-13 38,-18 81,-18 58,-1 60,0 60,25 0,16 12,37 29,54 l 30,28 32,-23 c 34,-24 36,-20 14,34 -9,21 6,22 45,2 37,-19 39,-29 5,-21 l -26,7 6,-108 c 3,-71 2,-101 -4,-88 -5,11 -10,41 -10,66 -1,48 -30,99 -56,99 -21,0 -47,-50 -43,-82 5,-29 -6,-47 -17,-28 -3,5 -32,10 -63,10 -34,1 -65,7 -76,15 -23,17 -36,19 -36,5 0,-18 72,-90 90,-90 25,0 31,-21 12,-42 -13,-16 -12,-18 13,-28 41,-16 225,-2 225,17 0,26 30,25 66,-2 l 35,-27 23,21 c 17,16 25,18 34,9 7,-7 12,-18 12,-26 0,-12 -3,-12 -15,-2 -12,10 -18,10 -30,0 -8,-7 -15,-19 -15,-26 0,-21 -8,-17 -41,21 -17,19 -35,35 -40,35 -12,0 -11,-37 1,-45 6,-3 10,-10 10,-15 0,-6 -18,-1 -39,11 -31,16 -46,18 -72,11 l -34,-8 40,-27 c 22,-15 44,-27 49,-27 5,0 20,-9 32,-21 21,-20 23,-20 54,-4 30,15 33,15 46,-2 19,-25 27,-58 19,-82 -8,-28 -24,-18 -18,11 2,13 -2,31 -10,42 -11,15 -17,16 -34,8 -11,-6 -23,-19 -27,-28 -5,-14 -9,-13 -26,9 -20,25 -75,43 -117,39 -13,-2 -33,2 -44,9 -19,10 -21,9 -16,-6 4,-9 7,-23 7,-31 0,-10 13,-14 45,-14 43,0 45,-1 45,-29 0,-47 -21,-61 -70,-47 -39,10 -43,9 -61,-13 -24,-29 -20,-43 12,-52 13,-4 18,-7 12,-8 -27,-2 -11,-18 28,-30 30,-9 45,-9 52,-2 6,6 17,11 25,11 8,0 20,7 26,15 12,16 106,32 106,18 0,-15 -67,-53 -92,-53 -32,0 -58,-9 -58,-20 0,-13 59,-30 101,-30 21,0 41,-4 44,-10 3,-5 15,-10 27,-10 15,0 19,5 15,19 -5,20 18,38 28,22 2,-5 16,-11 30,-13 20,-4 25,-1 25,16 0,12 -9,27 -21,34 -12,7 -18,16 -15,19 3,3 12,0 21,-7 12,-10 20,-9 40,4 14,9 25,22 25,29 0,19 -21,37 -42,37 -24,0 -23,9 3,37 14,14 24,40 27,74 3,30 10,53 18,56 8,3 14,12 14,20 0,12 -8,15 -38,11 l -38,-6 4,64 c 4,62 4,64 -42,125 -51,67 -55,96 -19,115 30,14 19,24 -28,24 -28,0 -42,-6 -53,-22 -17,-24 -21,-58 -8,-74 4,-5 -1,-1 -10,9 -27,29 -22,62 15,99 22,22 37,51 46,88 23,94 91,292 120,350 36,72 102,124 145,116 16,-4 41,-13 54,-22 22,-15 24,-21 19,-66 -6,-48 -16,-68 -99,-197 -37,-57 -68,-150 -68,-203 0,-33 23,-106 57,-175 26,-54 31,-99 18,-169 -8,-44 17,-144 36,-144 6,0 7,6 1,16 -5,9 -5,32 -1,53 23,105 27,108 68,65 74,-78 175,-79 247,-2 62,65 69,107 29,177 -30,52 -31,84 -4,140 20,41 20,43 2,69 l -18,27 -3,-33 c -3,-26 -11,-36 -41,-52 -53,-26 -73,-59 -61,-100 11,-38 -8,-73 -51,-95 -25,-13 -32,-13 -73,4 -112,49 -154,229 -83,356 29,52 43,54 50,8 4,-21 13,-47 21,-58 14,-18 14,-10 9,81 -4,69 -2,103 5,108 6,4 38,-20 72,-55 55,-57 60,-60 60,-36 0,14 -4,28 -9,31 -17,11 -91,145 -91,165 0,26 2,26 48,2 20,-10 53,-21 72,-25 31,-6 33,-5 15,6 -11,7 -49,42 -85,79 -90,91 -118,108 -187,115 -61,7 -91,-2 -161,-47 -18,-12 -36,-19 -39,-15 -3,3 2,25 11,49 21,55 20,71 -4,140 -12,35 -18,67 -14,83 8,31 61,66 88,58 13,-4 17,-2 14,7 -2,8 -23,20 -46,27 -41,13 -48,32 -14,32 21,1 62,34 62,50 0,9 -12,11 -41,7 -66,-9 -92,9 -44,31 22,10 37,45 18,40 -5,-1 -23,1 -42,5 -24,5 -32,11 -27,22 3,8 8,21 11,28 4,10 -2,13 -23,9 -41,-6 -83,23 -77,52 3,11 1,35 -4,51 l -9,30 -16,-38 c -16,-37 -18,-38 -63,-35 -45,3 -48,5 -54,38 -8,38 -32,60 -66,60 -19,0 -23,5 -23,30 0,32 -17,41 -26,15 z m 424,-1925 c -7,-11 -16,-16 -21,-11 -12,12 0,31 19,31 12,0 12,-3 2,-20 z"
             inkscape:connector-curvature="0" />
          <path
             id="path4729"
             d="m 1842,4128 c -6,-6 -17,-38 -23,-70 -13,-67 -33,-80 -24,-14 6,36 4,44 -11,50 -32,12 -49,-18 -47,-84 0,-33 -3,-60 -8,-60 -5,0 -9,16 -9,35 0,23 -6,38 -15,42 -26,9 -29,-4 -12,-58 29,-89 18,-132 -58,-240 -18,-25 -36,-55 -39,-67 -11,-34 34,-29 75,8 98,87 159,106 245,76 58,-19 64,-20 64,-3 0,8 -16,22 -35,32 -19,11 -33,20 -31,22 1,2 23,-1 48,-5 58,-11 90,0 86,30 -3,21 -9,23 -56,23 -35,0 -52,4 -52,13 0,7 14,13 33,13 17,1 48,2 67,3 31,1 35,4 38,32 2,20 -4,36 -17,48 -20,18 -27,18 -93,-9 -11,-4 -18,-3 -18,3 0,10 38,31 83,46 26,8 23,71 -5,90 -49,35 -76,21 -117,-59 -11,-22 -16,-26 -19,-13 -2,9 4,30 12,47 22,42 20,56 -9,69 -32,15 -38,15 -53,0 z"
             inkscape:connector-curvature="0" />
          <path
             id="path4731"
             d="m 1581,3843 c -45,-39 -40,-53 17,-53 55,0 72,12 72,52 0,24 -4,28 -29,28 -17,0 -41,-11 -60,-27 z"
             inkscape:connector-curvature="0" />
          <path
             id="path4733"
             d="m 1770,3717 c -19,-10 -26,-23 -31,-56 -4,-31 -2,-44 8,-48 32,-13 53,13 66,85 7,36 -2,40 -43,19 z"
             inkscape:connector-curvature="0" />
          <path
             id="path4735"
             d="m 1206,3491 c -9,-16 -16,-48 -16,-71 0,-24 -4,-39 -10,-35 -5,3 -7,25 -3,51 l 6,45 -34,-3 -34,-3 2,-63 c 1,-45 -2,-62 -10,-59 -7,2 -13,16 -15,30 -2,16 -9,27 -19,27 -11,0 -14,-6 -10,-22 3,-13 11,-44 18,-70 12,-45 11,-50 -21,-113 -18,-35 -48,-82 -66,-104 -37,-43 -42,-59 -20,-67 17,-6 67,18 87,42 8,9 41,30 74,46 64,30 120,36 174,17 22,-8 36,-8 43,-1 7,7 -2,14 -26,22 -59,19 -56,34 6,26 45,-6 59,-4 78,12 32,26 18,42 -35,42 -24,0 -47,5 -50,10 -4,6 14,10 47,10 71,0 96,18 82,57 -10,30 -31,34 -99,18 -25,-6 -28,-5 -18,6 7,7 28,18 45,23 65,21 39,112 -29,104 -19,-2 -35,-14 -52,-40 -31,-48 -40,-41 -16,12 21,46 13,63 -37,75 -23,6 -29,2 -42,-24 z"
             inkscape:connector-curvature="0" />
          <path
             id="path4737"
             d="m 347,3373 c -76,-171 -156,-416 -198,-604 -23,-106 -35,-187 -26,-179 3,3 195,193 425,423 l 420,417 H 670 373 Z"
             inkscape:connector-curvature="0" />
          <path
             id="path4739"
             d="m 963,3239 c -27,-8 -62,-44 -51,-53 2,-2 27,-6 55,-9 51,-6 53,-5 69,25 23,45 -1,58 -73,37 z"
             inkscape:connector-curvature="0" />
          <path
             id="path4741"
             d="m 1150,3102 c -33,-16 -35,-20 -38,-71 -4,-69 10,-84 37,-40 22,36 44,104 39,120 -2,5 -19,1 -38,-9 z"
             inkscape:connector-curvature="0" />
          <path
             id="path4743"
             d="m 2924,2956 c -6,-27 -18,-33 -29,-16 -3,6 -15,10 -26,10 -29,0 -20,-33 11,-40 25,-6 25,-7 22,-101 l -4,-94 54,56 c 29,31 60,58 68,61 11,3 7,13 -17,44 -17,21 -35,52 -40,68 -12,39 -31,44 -39,12 z"
             inkscape:connector-curvature="0" />
          <path
             id="path4745"
             d="M 976,2656 C 816,2495 659,2335 627,2301 l -59,-61 H 325 c -231,0 -273,-5 -250,-28 4,-4 61,-7 128,-6 67,0 339,2 605,2 l 482,2 v 370 c 0,279 -3,370 -12,370 -6,0 -143,-132 -302,-294 z"
             inkscape:connector-curvature="0" />
          <path
             id="path4747"
             d="M 482.49342,2461.0686 C 469.59196,2445.8513 483.435,2423.1989 490,2405 c 21.03861,-58.3213 45.07143,-54.4464 57.07143,9.5536 8.6364,51.7091 9.33153,76.0999 -15.78572,79.9107 -10.44593,1.5848 -36.24976,-18.6017 -48.79229,-33.3957 z m 35.22513,51.8762 c 36,25 76.28145,21.0552 130.28145,2.0552 29,-11 57,-15 68,-11 18,8 18,8 -1,16 -12,4 -26,14 -33,22 -10,13 -5,14 36,10 38,-3 50,0 65,16 27,29 13,42 -44,42 -36,0 -49,4 -46,13 2,7 24,12 59,12 67,0 90,16 86,59 -3,28 -6,31 -38,30 -19,-1 -49,-6 -67,-12 -47,-15 -33,12 16,32 55,22 62,70 15,101 -43,28 -82,12 -106,-43 -11,-26 -22,-42 -25,-35 -2,6 3,25 11,42 23,43 20,66 -9,79 -32,15 -38,15 -53,0 -7,-7 -12,-30 -13,-52 0,-23 -4,-50 -9,-61 -7,-15 -9,-9 -9,26 -1,55 -19,76 -50,60 -26,-14 -34,-43 -26,-94 8,-46 -3,-44 -20,4 -5,17 -14,31 -20,30 -17,-1 -17,-38 -1,-64 9,-13 19,-44 22,-68 7,-53 -8,-89 -66,-159 -60,-73 -72,-103 -45,-114 9,-3 30,8 53,28"
             inkscape:connector-curvature="0"
             sodipodi:nodetypes="sscsscccccccscscccccccccscccccccccccc" />
          <path
             id="path4749"
             d="m 2280,2813 c 0,-43 4,-83 8,-89 4,-6 25,-17 47,-25 22,-7 49,-19 60,-26 22,-15 73,-17 93,-5 9,6 12,36 10,113 l -3,104 -107,3 -108,3 z"
             inkscape:connector-curvature="0" />
          <path
             id="path4751"
             d="m 2667,2884 c -4,-4 -7,-52 -7,-106 v -98 h 81 c 72,0 81,-2 86,-20 4,-13 14,-20 29,-20 h 25 l -3,123 -3,122 -101,3 c -55,1 -103,0 -107,-4 z"
             inkscape:connector-curvature="0" />
          <path
             id="path4753"
             d="m 2217,2665 c -27,-7 -57,-21 -68,-31 -17,-16 -28,-16 -141,-4 -68,8 -161,14 -208,14 l -85,1 v -400 l 1,-400 32,-3 c 35,-4 39,3 17,32 -22,29 -22,734 0,742 8,3 46,-1 84,-10 80,-18 174,-21 250,-6 49,9 56,8 112,-22 l 60,-32 42,22 c 23,12 48,22 55,22 6,0 12,3 12,8 0,4 64,8 143,10 78,1 165,4 192,5 l 50,2 v -383 c 0,-347 1,-382 16,-382 26,0 28,64 21,627 l -2,172 -122,-5 c -68,-4 -157,-10 -198,-14 -59,-6 -80,-5 -98,7 -18,11 -117,47 -117,42 0,0 -22,-7 -48,-14 z m 121,-31 c 48,-13 18,-22 -65,-19 -105,4 -102,3 -83,15 17,11 112,13 148,4 z"
             inkscape:connector-curvature="0" />
          <path
             id="path4755"
             d="m 333,2613 c -60,-12 -44,-51 25,-60 40,-5 54,4 66,45 7,20 4,22 -31,21 -21,-1 -48,-4 -60,-6 z"
             inkscape:connector-curvature="0" />
          <path
             id="path4757"
             d="m 3006,2598 c -24,-34 -19,-41 12,-19 24,17 34,19 87,10 33,-6 73,-17 89,-25 26,-12 32,-12 44,0 14,14 8,41 -7,31 -5,-2 -46,2 -92,10 -109,19 -115,19 -133,-7 z"
             inkscape:connector-curvature="0" />
          <path
             id="path4759"
             d="m 2710,2594 c -121,-18 -240,-25 -278,-15 -37,10 -44,10 -63,-7 -20,-19 -20,-20 35,-26 31,-4 60,-5 65,-2 5,4 12,2 16,-4 9,-14 -41,-23 -88,-15 -100,17 -107,17 -107,6 0,-16 57,-42 99,-46 20,-2 63,6 96,17 61,21 180,28 196,11 4,-4 9,-132 10,-283 2,-300 7,-392 20,-384 5,3 9,155 9,338 0,266 -3,336 -13,345 -8,6 -41,12 -75,13 -61,3 -79,12 -44,22 9,2 45,4 80,4 47,0 64,-4 72,-16 8,-15 9,-14 10,4 0,24 -18,42 -40,38 z"
             inkscape:connector-curvature="0" />
          <path
             id="path4761"
             d="m 1777,2584 c -9,-10 -8,-682 1,-688 13,-8 22,160 22,421 v 233 l 24,6 c 13,3 43,1 67,-4 l 44,-10 -45,-1 c -25,-1 -50,-5 -57,-9 -17,-11 -31,-682 -14,-682 7,0 9,15 6,43 -3,23 -2,173 2,332 l 8,290 37,3 c 20,2 68,-6 105,-17 79,-23 195,-21 246,6 29,15 30,17 13,27 -10,6 -33,20 -50,32 -24,15 -38,19 -55,12 -50,-18 -157,-20 -249,-4 -107,19 -97,18 -105,10 z m 407,-49 c -8,-19 -64,-29 -127,-22 -73,9 -83,26 -11,20 33,-3 70,0 84,5 38,16 60,15 54,-3 z"
             inkscape:connector-curvature="0" />
          <path
             id="path4763"
             d="m 2266,2438 c -3,-33 -6,-188 -6,-343 v -283 l 53,-23 c 64,-29 129,-28 215,0 34,12 82,21 108,21 h 47 l -6,197 c -4,108 -7,263 -7,345 v 148 h -50 c -27,0 -73,-9 -102,-21 -74,-29 -154,-27 -219,7 l -26,13 z"
             inkscape:connector-curvature="0" />
          <path
             id="path4765"
             d="m 1848,2235 c -1,-140 -3,-290 -3,-332 v -77 l 45,-8 c 25,-4 63,-15 85,-24 55,-23 189,-23 233,0 l 32,17 v 142 c 0,78 3,224 6,324 4,101 4,190 0,198 -5,14 -9,14 -35,0 -39,-20 -158,-20 -234,0 -32,8 -74,15 -92,15 h -35 z"
             inkscape:connector-curvature="0" />
          <path
             id="path4767"
             d="m 2835,2468 c -3,-8 -4,-61 -3,-119 3,-100 4,-104 26,-107 23,-3 23,-3 20,115 -3,103 -5,118 -21,121 -9,2 -19,-3 -22,-10 z"
             inkscape:connector-curvature="0" />
          <path
             id="path4769"
             d="m 2744,2370 c 0,-58 1,-81 3,-52 2,28 2,76 0,105 -2,28 -3,5 -3,-53 z"
             inkscape:connector-curvature="0" />
          <path
             id="path4771"
             d="m 3368,2218 c -2,-7 -1,-164 2,-348 l 5,-335 333,333 334,332 h 188 c 173,0 235,8 177,24 -12,3 -250,6 -528,6 -397,0 -508,-3 -511,-12 z"
             inkscape:connector-curvature="0" />
          <path
             id="path4773"
             d="m 1353,2058 c -25,-33 -22,-47 17,-81 22,-19 40,-37 40,-40 0,-13 -38,-7 -51,9 -8,10 -25,14 -48,12 -28,-2 -38,2 -47,19 -13,27 -24,20 -24,-14 0,-25 26,-41 89,-52 19,-3 36,-12 39,-19 3,-9 -3,-11 -22,-6 -17,4 -35,0 -52,-10 -15,-10 -33,-14 -45,-11 -17,6 -20,3 -17,-12 3,-15 14,-18 73,-20 39,-2 83,2 100,7 23,8 32,7 40,-3 15,-21 51,-37 81,-37 41,0 62,-25 85,-103 26,-86 21,-98 -68,-169 -70,-56 -77,-65 -87,-123 -11,-61 -16,-75 -30,-75 -8,0 -19,7 -26,15 -7,8 -16,15 -21,15 -20,0 -6,-48 36,-127 47,-87 72,-173 51,-173 -6,0 -16,-8 -23,-19 -6,-10 -25,-21 -41,-24 -17,-3 -46,-20 -65,-37 -24,-21 -45,-30 -69,-30 -41,0 -68,-25 -68,-63 0,-14 -4,-29 -10,-32 -6,-4 -10,12 -10,40 v 47 l -51,-7 -51,-7 16,30 c 8,16 12,32 9,36 -10,10 -71,7 -78,-4 -9,-14 -25,-12 -25,3 -1,31 -17,41 -49,27 -17,-7 -31,-16 -31,-21 0,-5 -4,-9 -10,-9 -5,0 -10,6 -10,14 0,24 -18,28 -42,12 -12,-9 -35,-16 -51,-16 -26,0 -29,3 -23,26 5,20 0,33 -24,60 -26,30 -30,32 -30,14 0,-11 5,-29 12,-39 16,-26 -3,-48 -48,-57 -29,-5 -44,0 -87,26 -41,25 -59,31 -88,27 -32,-4 -38,-2 -43,16 -4,15 -8,19 -16,11 -16,-16 5,-64 27,-64 10,0 26,-7 36,-14 16,-13 15,-16 -22,-54 -29,-29 -46,-39 -61,-35 -27,7 -25,-1 5,-21 26,-17 63,-10 91,19 17,17 44,20 44,5 0,-5 -9,-14 -20,-20 -15,-8 -60,-80 -60,-96 0,-7 41,11 51,22 6,8 20,14 31,14 11,0 33,14 49,31 l 29,31 93,-4 c 88,-4 94,-6 126,-37 19,-18 53,-42 75,-53 23,-11 52,-30 66,-43 18,-16 42,-24 86,-28 l 60,-5 -4,28 c -3,20 4,39 24,64 l 29,36 42,-42 c 42,-42 43,-43 43,-111 0,-43 -4,-66 -10,-62 -5,3 -10,32 -10,63 0,49 -4,63 -29,92 -29,34 -30,35 -45,15 -25,-32 -29,-62 -12,-96 9,-18 16,-33 16,-35 0,-2 -16,6 -35,17 -23,14 -45,19 -63,16 -15,-3 -42,2 -60,10 -40,19 -45,15 -31,-25 13,-37 95,-102 130,-103 23,-1 23,-1 -3,-11 -16,-5 -28,-15 -28,-22 0,-7 12,-13 28,-14 15,0 44,-8 64,-16 21,-9 48,-16 62,-16 14,0 28,-5 31,-11 4,-6 1,-10 -6,-8 -8,1 -23,1 -34,0 -18,-1 -17,-3 5,-17 14,-10 44,-35 66,-56 36,-34 45,-38 62,-29 31,17 37,14 50,-22 15,-41 15,-57 1,-57 -5,0 -8,4 -4,9 7,12 -15,61 -27,61 -4,0 -17,-6 -29,-12 -17,-11 -22,-10 -38,10 -10,14 -26,23 -37,21 -10,-2 -29,3 -42,10 -18,9 -27,10 -38,1 -8,-7 -25,-9 -41,-5 -23,5 -25,4 -14,-9 8,-9 10,-16 6,-16 -4,0 -2,-7 6,-16 8,-10 22,-14 38,-11 35,7 51,-2 51,-28 0,-34 -22,-47 -68,-39 -64,10 -115,-33 -59,-51 19,-6 19,-8 5,-12 -27,-7 -22,-19 14,-34 46,-19 95,-17 112,6 13,17 17,18 56,5 l 41,-14 -27,-14 c -14,-8 -42,-14 -60,-14 -21,0 -34,-5 -34,-13 0,-18 146,-41 164,-26 10,8 22,8 40,1 15,-5 29,-10 32,-10 11,0 2,35 -13,52 -20,23 -11,33 15,17 17,-10 25,-10 46,4 27,18 34,51 14,63 -7,5 -26,7 -43,6 -29,-1 -29,-1 -7,10 32,16 62,78 62,127 0,30 5,43 21,51 27,15 10,36 -32,42 -24,4 -33,0 -39,-16 -9,-21 -9,-21 -9,2 -1,29 -15,28 -39,-3 l -20,-25 -22,42 c -24,48 -45,68 -72,68 -13,0 -18,-8 -18,-31 0,-17 -4,-28 -10,-24 -12,7 -14,72 -2,79 16,10 76,-29 94,-61 23,-38 29,-40 53,-13 13,14 21,17 31,9 29,-24 27,12 -7,128 -14,44 -3,73 27,73 22,0 16,15 -11,30 -39,21 -90,-7 -103,-57 l -10,-38 -1,33 c -1,18 3,41 8,51 7,11 5,27 -6,49 -17,35 -33,42 -33,14 0,-21 -46,-69 -57,-59 -4,4 3,21 15,37 12,16 22,38 22,50 0,11 3,20 8,20 13,0 60,-49 67,-70 15,-48 52,-7 105,115 47,110 143,276 199,343 40,49 106,92 140,92 33,0 69,-28 76,-60 9,-42 -23,-101 -106,-200 -128,-151 -165,-266 -124,-380 13,-34 16,-78 16,-179 -1,-106 2,-138 14,-157 22,-34 36,-30 23,6 -8,24 -6,46 8,98 9,37 19,69 20,71 2,2 15,-11 30,-28 37,-44 74,-61 136,-61 68,1 132,29 152,69 28,53 21,119 -19,181 -43,66 -44,92 -5,137 22,25 30,43 30,71 l -1,37 -17,-24 c -9,-14 -39,-45 -65,-71 -41,-40 -48,-52 -52,-94 -3,-26 -14,-61 -26,-77 -17,-24 -28,-29 -60,-29 -32,0 -46,7 -79,40 -29,29 -41,49 -42,73 -3,61 3,101 21,126 10,14 21,36 25,48 9,28 114,125 127,117 6,-3 7,-14 4,-25 -4,-10 -3,-29 1,-41 6,-19 8,-17 21,18 8,21 19,55 24,74 6,19 12,41 15,48 2,9 20,-2 50,-32 44,-44 64,-56 64,-37 0,5 -7,14 -15,21 -8,6 -24,37 -35,68 -12,31 -25,61 -29,67 -5,5 -11,22 -15,37 -6,26 -5,27 23,17 17,-6 40,-9 53,-7 21,3 21,5 -13,25 -19,12 -41,33 -48,45 -6,13 -28,34 -48,48 -31,21 -48,25 -107,25 -88,0 -143,-25 -203,-93 -32,-36 -45,-44 -54,-35 -9,9 -7,18 10,39 24,30 51,113 51,155 0,15 11,41 24,56 20,23 32,28 70,28 25,0 46,3 46,6 0,9 -33,35 -52,42 -22,8 -24,27 -3,27 8,0 26,5 40,12 l 25,11 -22,24 c -12,13 -32,23 -44,23 -36,0 -38,18 -4,35 36,19 38,33 5,41 -13,3 -30,13 -37,21 -7,8 -22,19 -34,23 -14,6 -25,21 -29,42 -4,18 -16,44 -26,57 -23,29 -24,59 -3,89 17,25 7,29 -22,8 -13,-10 -19,-26 -19,-51 0,-25 -6,-41 -18,-49 -25,-16 -85,19 -120,72 -24,36 -33,42 -64,42 -33,0 -35,2 -29,25 7,27 -13,35 -31,13 z M 1530,225 c -6,-8 -9,-19 -5,-24 3,-7 0,-8 -9,-5 -27,10 -18,44 12,44 12,0 12,-3 2,-15 z"
             inkscape:connector-curvature="0" />
          <path
             id="path4775"
             d="m 3975,1988 c -2,-7 -6,-33 -7,-58 -2,-25 -8,-43 -13,-40 -6,3 -9,20 -7,38 4,37 -15,50 -48,32 -19,-10 -22,-18 -18,-48 3,-21 2,-46 -3,-57 -7,-20 -8,-20 -8,1 -1,27 -25,59 -38,51 -7,-4 -4,-29 8,-72 12,-44 15,-74 10,-93 -10,-32 -50,-99 -92,-153 -16,-20 -29,-44 -29,-53 0,-28 33,-17 103,35 92,70 135,82 207,58 68,-22 102,-11 52,18 -17,10 -32,21 -32,25 0,4 24,4 53,1 41,-4 56,-2 66,11 18,22 7,46 -23,46 -30,0 -56,9 -56,20 0,5 17,6 39,3 68,-9 105,32 64,72 -16,17 -53,17 -95,0 -38,-15 -16,13 25,31 35,16 42,24 42,48 0,35 -42,71 -72,62 -11,-3 -30,-25 -43,-48 -26,-47 -40,-37 -15,11 21,42 6,71 -36,71 -16,0 -32,-6 -34,-12 z"
             inkscape:connector-curvature="0" />
          <path
             id="path4777"
             d="m 4085,1492 -340,-337 330,-3 c 182,-1 341,0 354,3 l 23,6 -3,334 c -3,214 -8,335 -14,335 -5,0 -163,-152 -350,-338 z"
             inkscape:connector-curvature="0" />
          <path
             id="path4779"
             d="m 3733,1714 c -18,-14 -33,-30 -33,-35 0,-5 22,-9 50,-9 44,0 51,3 64,29 9,16 12,31 9,35 -14,14 -60,4 -90,-20 z"
             inkscape:connector-curvature="0" />
          <path
             id="path4781"
             d="m 848,1684 c -12,-11 -10,-42 4,-63 6,-10 8,-25 5,-34 -8,-21 -69,-32 -95,-18 -33,17 -76,13 -95,-10 -17,-19 -20,-20 -42,-5 -30,20 -35,20 -35,1 0,-22 40,-39 85,-36 41,3 41,-13 0,-21 -11,-2 -24,-13 -30,-26 -6,-14 -22,-24 -42,-28 -53,-10 -38,-24 25,-24 46,0 62,5 86,25 33,29 55,24 25,-6 -13,-13 -18,-27 -14,-40 5,-14 1,-25 -12,-34 -15,-12 -16,-14 -2,-15 25,0 84,27 100,46 8,9 19,28 24,42 8,18 25,29 68,42 54,17 58,17 80,0 12,-9 39,-23 60,-31 50,-18 59,-35 40,-84 -31,-84 -34,-112 -17,-155 9,-22 20,-40 25,-40 20,0 7,-18 -21,-30 -48,-20 -35,-30 38,-29 87,2 243,-15 271,-30 11,-7 21,-16 21,-21 0,-6 8,-10 18,-10 15,1 15,2 -2,15 -19,14 -19,16 -2,53 l 18,39 -32,59 c -46,86 -51,89 -104,77 -52,-12 -60,-8 -45,19 5,10 9,43 8,73 -2,40 2,60 15,74 23,25 7,35 -41,26 -32,-6 -35,-4 -28,12 17,42 16,50 -6,56 -12,3 -35,3 -50,0 -28,-5 -29,-4 -22,27 l 6,33 -38,-6 c -22,-4 -43,-13 -48,-22 -10,-19 -27,-10 -27,15 0,31 -19,33 -43,4 -22,-25 -24,-26 -53,-11 -38,20 -61,46 -66,75 -1,13 -6,20 -10,16 z"
             inkscape:connector-curvature="0" />
          <path
             id="path4783"
             d="m 3902,1597 c -16,-7 -22,-17 -18,-30 3,-11 0,-29 -5,-40 -15,-26 2,-43 28,-27 36,23 56,99 28,106 -5,1 -20,-2 -33,-9 z"
             inkscape:connector-curvature="0" />
          <path
             id="path4785"
             d="m 3362,1348 c -7,-7 -12,-17 -12,-22 0,-24 -22,-87 -28,-81 -3,3 -5,21 -4,40 3,27 -1,35 -18,40 -27,9 -44,-7 -46,-43 -5,-69 -5,-68 -20,-33 -11,24 -18,31 -26,23 -7,-7 -5,-26 7,-62 24,-72 16,-105 -54,-212 -33,-51 -57,-96 -55,-100 10,-16 33,-8 78,27 103,79 171,97 241,66 26,-11 51,-18 56,-15 16,10 9,24 -17,34 -14,6 -23,14 -19,19 5,10 26,8 56,-4 18,-7 49,18 49,41 0,10 -12,14 -37,14 -66,0 -70,17 -7,25 67,8 84,18 84,50 0,36 -23,49 -65,35 -55,-18 -65,-5 -13,18 50,22 66,49 48,82 -23,43 -99,34 -122,-15 -11,-24 -28,-34 -28,-16 0,5 8,23 18,41 16,30 16,32 -2,45 -24,18 -48,19 -64,3 z"
             inkscape:connector-curvature="0" />
          <path
             id="path4787"
             d="m 1437,1113 c -11,-10 -8,-43 3,-43 6,0 10,11 10,25 0,26 -2,29 -13,18 z"
             inkscape:connector-curvature="0" />
          <path
             id="path4789"
             d="m 2264,883 c 3,-131 6,-365 7,-520 1,-154 5,-287 10,-295 10,-15 10,-2 9,243 l -1,165 108,105 c 59,57 206,202 328,321 l 220,218 h -343 -344 z"
             inkscape:connector-curvature="0" />
          <path
             id="path4791"
             d="m 3096,1089 c -14,-11 -26,-29 -26,-38 0,-15 7,-18 40,-16 44,2 80,28 80,57 0,26 -59,24 -94,-3 z"
             inkscape:connector-curvature="0" />
          <path
             id="path4793"
             d="m 3277,967 c -22,-9 -27,-16 -23,-33 4,-13 2,-34 -4,-48 -12,-33 6,-35 44,-5 20,16 26,29 26,60 0,42 -1,42 -43,26 z"
             inkscape:connector-curvature="0" />
          <path
             id="path4795"
             d="m 963,751 c -6,-25 -16,-27 -33,-6 -19,23 -29,18 -36,-20 -7,-37 -13,-42 -31,-24 -6,6 -20,8 -32,4 -17,-5 -21,-14 -21,-51 0,-42 -1,-44 -25,-38 -23,6 -25,3 -25,-28 0,-22 -7,-42 -20,-53 -19,-17 -20,-31 -20,-197 0,-139 3,-179 13,-176 6,3 14,17 15,33 2,16 11,34 20,41 14,10 14,18 4,65 -12,50 -11,54 13,90 14,21 25,44 25,50 0,6 27,39 61,74 49,52 74,68 125,87 57,20 82,38 54,38 -13,0 -44,58 -50,94 -6,36 -29,46 -37,17 z"
             inkscape:connector-curvature="0" />
          <path
             id="path4797"
             d="m 2731,741 c -12,-12 -22,-41 -26,-75 -9,-73 -25,-73 -18,0 l 6,57 -29,-7 c -42,-11 -48,-20 -45,-77 1,-33 -2,-49 -8,-44 -6,3 -11,15 -11,26 0,11 -7,19 -16,19 -12,0 -15,-6 -10,-22 4,-13 10,-53 13,-89 6,-74 -5,-105 -63,-173 -36,-42 -45,-86 -18,-86 9,0 37,17 63,38 103,86 150,98 226,62 49,-24 65,-25 65,-5 0,9 -12,18 -30,22 -48,9 -30,28 22,25 57,-4 90,11 86,41 -2,18 -9,21 -35,19 -45,-5 -50,14 -5,22 53,9 86,37 77,65 -9,31 -44,42 -77,25 -53,-28 -63,-14 -13,19 58,37 66,59 34,93 -39,41 -83,25 -119,-44 -19,-38 -21,-19 -3,28 17,42 17,43 -6,61 -29,24 -36,24 -60,0 z"
             inkscape:connector-curvature="0" />
          <path
             id="path4799"
             d="M 3023,432 C 2852,263 2697,108 2680,88 l -32,-38 343,1 c 206,0 346,5 350,10 5,9 0,671 -5,676 -1,2 -142,-135 -313,-305 z"
             inkscape:connector-curvature="0" />
          <path
             id="path4801"
             d="M 70,590 V 460 h 113 114 l 6,121 c 4,67 4,125 1,130 -3,5 -57,9 -120,9 H 70 Z"
             inkscape:connector-curvature="0" />
          <path
             id="path4803"
             d="m 475,698 c -3,-13 -5,-72 -3,-133 l 3,-110 106,-3 106,-3 6,92 c 4,51 7,112 7,136 v 43 H 590 c -105,0 -110,-1 -115,-22 z"
             inkscape:connector-curvature="0" />
          <path
             id="path4805"
             d="m 2485,476 c -17,-7 -36,-20 -44,-29 -12,-15 -10,-17 23,-17 21,0 46,-4 56,-10 22,-12 38,4 42,41 2,19 -2,24 -22,26 -14,2 -39,-3 -55,-11 z"
             inkscape:connector-curvature="0" />
          <path
             id="path4807"
             d="m 1023,355 c -13,-9 -23,-25 -23,-36 0,-20 2,-19 31,5 36,30 39,31 108,10 57,-16 112,-16 118,2 3,7 -23,14 -74,17 -43,4 -91,9 -108,12 -19,4 -38,0 -52,-10 z"
             inkscape:connector-curvature="0" />
          <path
             id="path4809"
             d="m 2664,350 c -35,-14 -43,-110 -9,-110 22,0 48,39 49,76 1,40 -7,47 -40,34 z"
             inkscape:connector-curvature="0" />
          <path
             id="path4811"
             d="M 70,186 V 63 l 105,-7 c 58,-4 110,-4 115,-1 6,4 10,62 10,131 V 310 H 185 70 Z"
             inkscape:connector-curvature="0" />
          <path
             id="path4813"
             d="M 473,183 475,55 581,52 C 708,49 702,41 695,201 l -5,104 -109,3 -110,3 z"
             inkscape:connector-curvature="0" />
        </g>
      </g>
    </g>
  </g>
</svg>
